<?xml version="1.0" encoding="iso-8859-1"?>
<!-- Generator: Adobe Illustrator 19.0.0, SVG Export Plug-In . SVG Version: 6.00 Build 0)  -->
<svg version="1.1" id="Layer_1" xmlns="http://www.w3.org/2000/svg" xmlns:xlink="http://www.w3.org/1999/xlink" x="0px" y="0px"
	 viewBox="0 0 512 512" style="enable-background:new 0 0 512 512;" xml:space="preserve">
<path style="fill:#FC4C59;" d="M456.617,441.093H56.507c-9.326,0-16.887,7.561-16.887,16.887v27.006
	c0,9.326,7.561,16.887,16.887,16.887h400.109c9.326,0,16.887-7.561,16.887-16.887v-27.006
	C473.502,448.653,465.943,441.093,456.617,441.093z"/>
<path style="fill:#E83A64;" d="M456.617,441.093H404.28c9.326,0,16.887,7.561,16.887,16.887v27.006
	c0,9.326-7.559,16.887-16.887,16.887h52.336c9.326,0,16.887-7.561,16.887-16.887v-27.006
	C473.502,448.653,465.943,441.093,456.617,441.093z"/>
<path style="fill:#FFDB6C;" d="M453.243,441.093H54.419l-24.311-277.24c0-10.998,14.637-14.787,19.973-5.169l55.512,100.056
	l65.352-200.735c3.193-9.808,17.07-9.808,20.263,0l65.352,142.659l65.352-142.659c3.193-9.808,17.07-9.808,20.263,0l65.352,200.735
	l55.512-100.056c5.335-9.616,19.973-5.829,19.973,5.169L453.243,441.093z"/>
<path style="fill:#FFB966;" d="M463.043,158.683l-37.829,68.185l-8.934,83.203c-5.188,48.309-45.959,84.936-94.545,84.936
	L51.87,412.011l2.55,29.08h398.824l29.772-277.24C483.016,152.855,468.379,149.066,463.043,158.683z"/>
<g>
	<circle style="fill:#FC4C59;" cx="38.498" cy="133.036" r="20.259"/>
	<circle style="fill:#FC4C59;" cx="473.499" cy="133.036" r="20.259"/>
	<circle style="fill:#FC4C59;" cx="180.929" cy="30.389" r="20.259"/>
	<circle style="fill:#FC4C59;" cx="332.657" cy="30.389" r="20.259"/>
</g>
<g>
	<path style="fill:#E83A64;" d="M38.498,137.092c-8.305,0-15.435-5.003-18.562-12.156c-1.086,2.482-1.698,5.22-1.698,8.104
		c0,11.189,9.071,20.259,20.259,20.259s20.259-9.071,20.259-20.259c0-2.884-0.612-5.621-1.696-8.104
		C53.933,132.089,46.803,137.092,38.498,137.092z"/>
	<path style="fill:#E83A64;" d="M473.502,137.092c-8.305,0-15.435-5.003-18.562-12.156c-1.086,2.482-1.698,5.22-1.698,8.104
		c0,11.189,9.071,20.259,20.259,20.259s20.259-9.071,20.259-20.259c0-2.884-0.612-5.621-1.696-8.104
		C488.937,132.089,481.808,137.092,473.502,137.092z"/>
	<path style="fill:#E83A64;" d="M180.927,34.441c-8.305,0-15.435-5.003-18.563-12.156c-1.086,2.482-1.696,5.22-1.696,8.104
		c0,11.189,9.071,20.259,20.259,20.259s20.259-9.071,20.259-20.259c0-2.884-0.612-5.621-1.696-8.104
		C196.362,29.437,189.232,34.441,180.927,34.441z"/>
	<path style="fill:#E83A64;" d="M332.657,34.441c-8.305,0-15.435-5.003-18.562-12.156c-1.086,2.482-1.698,5.22-1.698,8.104
		c0,11.189,9.071,20.259,20.259,20.259s20.259-9.071,20.259-20.259c0-2.884-0.612-5.621-1.696-8.104
		C348.093,29.437,340.963,34.441,332.657,34.441z"/>
</g>
<ellipse style="fill:#FD4DD7;" cx="253.416" cy="324.526" rx="43.557" ry="61.075"/>
<g>
	<circle style="fill:#7C54B8;" cx="358.967" cy="328.767" r="21.172"/>
	<circle style="fill:#7C54B8;" cx="147.866" cy="328.767" r="21.172"/>
</g>
<path style="fill:#E846AA;" d="M253.419,368.671c-22.006,0-40.189-22.888-43.131-52.611c-0.274,2.77-0.427,5.594-0.427,8.47
	c0,33.734,19.502,61.08,43.557,61.08s43.557-27.347,43.557-61.08c0-2.875-0.153-5.701-0.427-8.47
	C293.608,345.784,275.425,368.671,253.419,368.671z"/>
<g>
	<path style="fill:#674799;" d="M358.971,332.993c-8.679,0-16.129-5.228-19.398-12.701c-1.134,2.596-1.773,5.457-1.773,8.47
		c0,11.692,9.479,21.172,21.172,21.172s21.172-9.479,21.172-21.172c0-3.013-0.639-5.875-1.775-8.47
		C375.1,327.766,367.65,332.993,358.971,332.993z"/>
	<path style="fill:#674799;" d="M147.866,332.993c-8.679,0-16.129-5.228-19.398-12.701c-1.135,2.596-1.773,5.457-1.773,8.47
		c0,11.692,9.479,21.172,21.172,21.172c11.692,0,21.172-9.479,21.172-21.172c0-3.013-0.639-5.875-1.775-8.47
		C163.995,327.766,156.545,332.993,147.866,332.993z"/>
</g>
<path d="M503.891,133.04c0-16.757-13.633-30.389-30.389-30.389s-30.389,13.632-30.389,30.389c0,8.944,3.886,16.995,10.055,22.561
	l-43.208,77.881L351.81,54.869c-0.078-0.24-0.174-0.469-0.259-0.704c6.998-5.573,11.495-14.156,11.495-23.776
	C363.046,13.632,349.413,0,332.657,0s-30.389,13.632-30.389,30.389c0,9.188,4.105,17.43,10.569,23.006
	c-0.113,0.28-0.235,0.554-0.338,0.84l-55.939,122.107L200.622,54.235c-0.066-0.185-0.147-0.361-0.219-0.543
	c6.664-5.579,10.912-13.953,10.912-23.304C211.315,13.632,197.682,0,180.926,0s-30.389,13.632-30.389,30.389
	c0,9.457,4.344,17.917,11.139,23.494c-0.124,0.327-0.254,0.65-0.363,0.986l-58.148,178.612L59.57,154.905
	c5.737-5.531,9.317-13.286,9.317-21.865c0-16.757-13.633-30.389-30.389-30.389S8.109,116.283,8.109,133.04
	c0,10.188,5.045,19.214,12.762,24.731c-0.573,1.926-0.893,3.963-0.893,6.082c0,0.296,0.014,0.592,0.038,0.885l23.632,269.487
	c-8.424,4.579-14.156,13.51-14.156,23.755v27.006c0,14.896,12.119,27.015,27.015,27.015h400.109
	c14.896,0,27.015-12.119,27.015-27.015v-27.006c0-12.192-8.123-22.513-19.237-25.863l28.693-267.182
	c0.038-0.359,0.058-0.72,0.058-1.082c0-2.37-0.384-4.645-1.095-6.767C499.245,151.524,503.891,142.817,503.891,133.04z
	 M473.502,122.91c5.586,0,10.13,4.543,10.13,10.13c0,5.362-4.19,9.751-9.465,10.096c-0.714-0.068-1.425-0.09-2.13-0.085
	c-4.892-0.714-8.664-4.924-8.664-10.011C463.372,127.454,467.916,122.91,473.502,122.91z M332.658,20.259
	c5.586,0,10.13,4.543,10.13,10.13s-4.543,10.13-10.13,10.13c-5.586,0-10.13-4.543-10.13-10.13S327.072,20.259,332.658,20.259z
	 M180.927,20.259c5.586,0,10.13,4.543,10.13,10.13s-4.543,10.13-10.13,10.13c-5.586,0-10.13-4.543-10.13-10.13
	S175.341,20.259,180.927,20.259z M38.498,122.91c5.586,0,10.13,4.543,10.13,10.13c0,5.188-3.921,9.469-8.953,10.055
	c-0.277,0.016-0.552,0.03-0.829,0.057c-0.116,0.004-0.23,0.018-0.347,0.018c-5.586,0-10.13-4.543-10.13-10.13
	C28.368,127.454,32.912,122.91,38.498,122.91z M444.144,430.963H188.356h-20.935c-5.596,0-10.13,4.535-10.13,10.13
	s4.534,10.13,10.13,10.13h20.935h264.887h3.374c3.725,0,6.756,3.031,6.756,6.757v27.006c0,3.725-3.031,6.756-6.756,6.756H56.507
	c-3.725,0-6.756-3.031-6.756-6.756v-27.006c0-3.726,3.031-6.757,6.756-6.757h38.318h1.351c5.596,0,10.13-4.535,10.13-10.13
	s-4.534-10.13-10.13-10.13h-1.351H63.699l-23.444-267.36c0.008-0.053,0.016-0.077,0.015-0.077c0.059-0.073,0.204-0.139,0.355-0.18
	c0.124-0.008,0.247-0.018,0.37-0.028c0.008,0.003,0.023,0,0.03,0.003c0.001,0,0.081,0.063,0.197,0.277l55.513,100.058
	c1.957,3.524,5.825,5.565,9.827,5.169c4.013-0.386,7.415-3.115,8.663-6.948l65.352-200.735c0.088-0.271,0.118-0.363,0.498-0.363
	c0.382,0,0.412,0.09,0.5,0.363c0.12,0.369,0.261,0.731,0.423,1.083l65.354,142.659c1.65,3.602,5.249,5.91,9.208,5.91
	s7.559-2.31,9.208-5.91l65.355-142.66c0.162-0.353,0.304-0.714,0.423-1.083c0.088-0.271,0.118-0.363,0.5-0.363
	c0.381,0,0.411,0.09,0.498,0.363l65.352,200.735c1.248,3.833,4.65,6.561,8.663,6.948c4.018,0.39,7.871-1.642,9.827-5.169
	L471.9,163.596c0.054-0.099,0.1-0.163,0.132-0.207c0.213,0.011,0.429,0.011,0.644,0.016c0.074,0.032,0.139,0.068,0.169,0.107
	c0.001,0,0.007,0.014,0.014,0.043L444.144,430.963z"/>
<path d="M253.419,253.32c-14.999,0-28.867,7.862-39.048,22.139c-9.439,13.239-14.639,30.666-14.639,49.072
	c0,18.405,5.2,35.833,14.639,49.072c10.181,14.276,24.049,22.138,39.048,22.138s28.867-7.862,39.048-22.138
	c9.439-13.239,14.639-30.667,14.639-49.072c0-18.406-5.2-35.833-14.639-49.072C282.286,261.182,268.418,253.32,253.419,253.32z
	 M253.419,375.482c-18.12,0-33.428-23.332-33.428-50.951s15.308-50.952,33.428-50.952s33.428,23.333,33.428,50.952
	S271.539,375.482,253.419,375.482z"/>
<path d="M358.971,297.461c-17.26,0-31.302,14.041-31.302,31.302c0,17.261,14.041,31.302,31.302,31.302
	c17.261,0,31.302-14.041,31.302-31.302C390.273,311.502,376.232,297.461,358.971,297.461z M358.971,339.804
	c-6.089,0-11.043-4.953-11.043-11.043c0-6.09,4.954-11.043,11.043-11.043c6.089,0,11.043,4.953,11.043,11.043
	C370.014,334.852,365.06,339.804,358.971,339.804z"/>
<path d="M147.866,297.461c-17.26,0-31.302,14.041-31.302,31.302c0,17.261,14.041,31.302,31.302,31.302s31.302-14.041,31.302-31.302
	C179.167,311.502,165.126,297.461,147.866,297.461z M147.866,339.804c-6.089,0-11.043-4.953-11.043-11.043
	c0-6.09,4.954-11.043,11.043-11.043c6.089,0,11.043,4.953,11.043,11.043C158.908,334.852,153.954,339.804,147.866,339.804z"/>
<g>
</g>
<g>
</g>
<g>
</g>
<g>
</g>
<g>
</g>
<g>
</g>
<g>
</g>
<g>
</g>
<g>
</g>
<g>
</g>
<g>
</g>
<g>
</g>
<g>
</g>
<g>
</g>
<g>
</g>
</svg>
